#!OML:ASF H:\IndianDance\Patient Classification 1\Patient 1\Session 1\dancer.ASF
:FULLY-SPECIFIED
:DEGREES
2247
root 0.722968 14.6327 -9.15664 1625.78 -182.388 -185.912
lowerback 5.7891 2.22116 -1.28515
upperback -8.58329 2.84787 -0.246791
thorax -12.5925 1.47438 -0.0238283
lowerneck -18.8072 -0.418631 -0.527313
upperneck 16.5946 -2.84882 11.7796
head 8.50217 -0.125815 3.7253
rclavicle 1.64991e-014 7.95139e-016
rhumerus 7.46131 60.549 -25.5866
rradius 98.8346
rwrist -14.6556
rhand 42.8002 -13.0934
rfingers 7.12502
rthumb 64.6718 -20.8074
lclavicle 1.64991e-014 7.95139e-016
lhumerus 28.291 -54.8008 -11.0511
lradius 108.598
lwrist -6.50791
lhand 8.3542 6.92998
lfingers 7.12502
lthumb 33.5637 -326.19
rfemur -31.2362 -27.4493 18.3701
rtibia 91.652
rfoot -11.393 -11.4141
rtoes 2.55779
lfemur -26.788 21.7349 -21.5435
ltibia 60.0174
lfoot -26.305 20.1059
ltoes -3.16747
2248
root 0.737655 14.5885 -9.19743 1626.09 -178.943 -186.044
lowerback 5.63408 2.33074 -1.15232
upperback -8.59836 3.00981 -0.226865
thorax -12.5098 1.53877 -0.0958698
lowerneck -18.7503 -0.496029 -0.634444
upperneck 16.5473 -2.94893 11.8835
head 8.48647 -0.176036 3.76404
rclavicle -3.81667e-014 -1.19271e-014
rhumerus 9.22889 60.5949 -24.6948
rradius 98.1162
rwrist -12.0758
rhand 41.3998 -12.8948
rfingers 7.12502
rthumb 63.5449 -22.3222
lclavicle -3.81667e-014 -1.19271e-014
lhumerus 28.2722 -54.5402 -10.845
lradius 108.36
lwrist -7.51415
lhand 5.68827 6.39672
lfingers 7.12502
lthumb 31.0262 -326.207
rfemur -30.5214 -25.7229 18.8882
rtibia 87.9179
rfoot -11.3908 -12.2164
rtoes 0.91359
lfemur -27.1262 21.8614 -21.4537
ltibia 60.9394
lfoot -26.6285 20.5496
ltoes -2.88434
2249
root 0.750018 14.5456 -9.23467 1626.44 -175.504 -186.223
lowerback 5.45204 2.45134 -1.02409
upperback -8.62196 3.18671 -0.198663
thorax -12.4209 1.61159 -0.157025
lowerneck -18.6993 -0.595795 -0.755952
upperneck 16.5421 -3.082 11.9918
head 8.48892 -0.240534 3.80373
rclavicle 3.99557e-014 3.18055e-015
rhumerus 10.8958 60.5515 -23.9344
rradius 97.4031
rwrist -9.56515
rhand 39.788 -12.7057
rfingers 7.12502
rthumb 62.2193 -23.9238
lclavicle 3.99557e-014 3.18055e-015
lhumerus 28.2951 -54.2289 -10.6982
lradius 108.128
lwrist -8.46287
lhand 2.88077 5.61048
lfingers 7.12502
lthumb 28.3466 -326.515
rfemur -29.8233 -24.0921 19.3741
rtibia 84.3421
rfoot -11.371 -12.8758
rtoes -1.37919
lfemur -27.4462 21.9518 -21.2866
ltibia 61.8552
lfoot -26.8885 20.8924
ltoes -2.73121
2250
root 0.759449 14.5015 -9.26898 1626.82 -172.101 -186.427
lowerback 5.24368 2.57252 -0.912813
upperback -8.65485 3.36142 -0.174987
thorax -12.3267 1.68496 -0.21136
lowerneck -18.65 -0.715105 -0.868118
upperneck 16.5763 -3.24799 12.092
head 8.50755 -0.319274 3.83593
rclavicle -6.99722e-014 -7.15625e-015
rhumerus 12.3922 60.4221 -23.398
rradius 96.6882
rwrist -7.13648
rhand 37.95 -12.4976
rfingers 7.12502
rthumb 60.6751 -25.5491
lclavicle -6.99722e-014 -7.15625e-015
lhumerus 28.3555 -53.8582 -10.6164
lradius 107.952
lwrist -9.27457
lhand 0.202084 4.81071
lfingers 7.12502
lthumb 25.7839 -326.916
rfemur -29.1504 -22.6151 19.8191
rtibia 81.0095
rfoot -11.4662 -13.4463
rtoes -4.39063
lfemur -27.7414 21.9991 -21.0721
ltibia 62.7448
lfoot -27.1221 21.1205
ltoes -2.551
2251
root 0.766194 14.4627 -9.29863 1627.22 -168.758 -186.644
lowerback 5.0024 2.68271 -0.839871
upperback -8.69113 3.51673 -0.147744
thorax -12.2185 1.75311 -0.234872
lowerneck -18.6113 -0.848702 -0.987737
upperneck 16.6468 -3.43384 12.179
head 8.54192 -0.407602 3.86331
rclavicle 3.77691e-014 2.14687e-014
rhumerus 13.7419 60.2234 -23.057
rradius 95.9799
rwrist -4.80602
rhand 35.8685 -12.2751
rfingers 7.12502
rthumb 58.8912 -27.169
lclavicle 3.77691e-014 2.14687e-014
lhumerus 28.4051 -53.4412 -10.5331
lradius 107.806
lwrist -10.0364
lhand -2.48248 3.91734
lfingers 7.12502
lthumb 23.2106 -327.461
rfemur -28.4788 -21.3333 20.2148
rtibia 77.9534
rfoot -11.7186 -13.957
rtoes -8.0811
lfemur -27.9609 21.9976 -20.833
ltibia 63.5438
lfoot -27.3881 21.2165
ltoes -2.19828
